<svg width="68" height="15" viewBox="0 0 68 15" fill="none" xmlns="http://www.w3.org/2000/svg">
<path d="M21.0518 14.2874L21.0518 0.998718H26.239C29.083 0.998718 30.8717 2.14349 30.8717 4.77289C30.8717 6.60631 29.9506 7.48278 29.0294 7.82263V7.97467C30.7018 8.21615 30.7018 9.3162 30.7018 10.2195V14.2874H29.0652V10.1837C29.0652 9.39669 28.618 8.95846 27.7683 8.95846H22.6974V14.2874H21.0518ZM22.6974 7.48278H25.4877C27.822 7.48278 29.2261 7.11609 29.2261 4.93387C29.2261 2.76954 27.7505 2.4744 25.4877 2.4744H22.6974V7.48278Z" fill="black"/>
<path d="M36.2032 14.2888C34.0657 14.2888 32.4916 13.153 32.4916 11.1228C32.4916 9.39669 33.6364 8.29664 36.0154 8.29664H39.2977V7.67953C39.2977 6.36484 38.4928 5.64041 36.8024 5.64041C35.3089 5.64041 34.4592 6.18596 34.3251 7.26813H32.7689C32.9299 5.54203 34.2446 4.22733 36.8382 4.22733C39.6465 4.22733 40.8449 5.6583 40.8449 7.68848V12.1602C40.8449 12.5806 41.0685 12.8131 41.4978 12.8131H41.945V14.092H41.2831C40.3172 14.092 39.6822 13.6985 39.4318 12.9473H39.3334C38.6806 13.7432 37.661 14.2888 36.2032 14.2888ZM34.0299 11.1586C34.0299 12.3838 35.0853 12.8757 36.4268 12.8757C38.2871 12.8757 39.2977 11.9277 39.2977 10.1748V9.57556H36.0154C34.5934 9.57556 34.0299 10.2553 34.0299 11.1586Z" fill="black"/>
<path d="M43.4694 14.092V4.42409H45.0166V5.18429H45.1597C45.7679 4.54035 46.6712 4.22733 47.9054 4.22733C50.2486 4.22733 51.3844 5.55992 51.3844 8.28769V14.092H49.8372V8.59177C49.8372 6.64208 49.0502 5.64041 47.5119 5.64041C45.902 5.64041 45.0166 6.69575 45.0166 8.59177V14.092H43.4694Z" fill="black"/>
<path d="M56.0775 14.092C54.7986 14.092 54.11 13.4034 54.11 12.1245V5.70301H52.5359V4.42409H54.11V1.98251H55.6483V4.42409H57.75V5.70301H55.6483V12.0261C55.6483 12.4554 55.8808 12.679 56.3101 12.679H57.75V14.092H56.0775Z" fill="black"/>
<path d="M59.2778 14.092V4.42409H60.825V14.092H59.2778ZM59.2867 2.94841V0.998718H60.825V2.94841H59.2867Z" fill="black"/>
<path d="M62.9111 14.092V4.42409H64.4583V5.30056H64.673C65.2096 4.57613 65.773 4.42409 66.408 4.42409H68V5.89977H66.4259C65.147 5.89977 64.4583 6.59737 64.4583 7.87629V14.092H62.9111Z" fill="black"/>
<path d="M14.2409 1.56273V3.92443C14.2409 4.57496 13.7108 5.10764 13.053 5.10764H5.93491C5.28179 5.10764 4.74698 5.63559 4.74698 6.29083V13.4372C4.74698 14.0878 4.21691 14.6204 3.55905 14.6204H1.18793C0.534808 14.6204 0 14.0925 0 13.4372V6.29083C0 5.6403 0.530075 5.10764 1.18793 5.10764H3.55905C4.21217 5.10764 4.74698 4.57967 4.74698 3.92443V1.56273C4.74698 0.9122 5.27706 0.379517 5.93491 0.379517H13.053C13.7061 0.379517 14.2409 0.907486 14.2409 1.56273Z" fill="black"/>
</svg>
